solid STL created by XYZ
	facet normal -1.000000e+000 0.000000e+000 0.000000e+000
		outer loop
			vertex 8.050000e+001 1.195000e+002 3.900000e+001
			vertex 8.050000e+001 1.195000e+002 -7.748604e-007
			vertex 8.050000e+001 8.050000e+001 3.900000e+001
		endloop
	endfacet
	facet normal -1.000000e+000 0.000000e+000 0.000000e+000
		outer loop
			vertex 8.050000e+001 8.050000e+001 3.900000e+001
			vertex 8.050000e+001 1.195000e+002 -7.748604e-007
			vertex 8.050000e+001 8.050000e+001 -7.748604e-007
		endloop
	endfacet
	facet normal 0.000000e+000 0.000000e+000 1.000000e+000
		outer loop
			vertex 1.195000e+002 1.195000e+002 3.900000e+001
			vertex 8.050000e+001 1.195000e+002 3.900000e+001
			vertex 1.195000e+002 8.050000e+001 3.900000e+001
		endloop
	endfacet
	facet normal 0.000000e+000 0.000000e+000 1.000000e+000
		outer loop
			vertex 1.195000e+002 8.050000e+001 3.900000e+001
			vertex 8.050000e+001 1.195000e+002 3.900000e+001
			vertex 8.050000e+001 8.050000e+001 3.900000e+001
		endloop
	endfacet
	facet normal 1.000000e+000 0.000000e+000 0.000000e+000
		outer loop
			vertex 1.195000e+002 1.195000e+002 -7.748604e-007
			vertex 1.195000e+002 1.195000e+002 3.900000e+001
			vertex 1.195000e+002 8.050000e+001 -7.748604e-007
		endloop
	endfacet
	facet normal 1.000000e+000 0.000000e+000 0.000000e+000
		outer loop
			vertex 1.195000e+002 8.050000e+001 -7.748604e-007
			vertex 1.195000e+002 1.195000e+002 3.900000e+001
			vertex 1.195000e+002 8.050000e+001 3.900000e+001
		endloop
	endfacet
	facet normal 0.000000e+000 0.000000e+000 -1.000000e+000
		outer loop
			vertex 8.050000e+001 1.195000e+002 -7.748604e-007
			vertex 1.195000e+002 1.195000e+002 -7.748604e-007
			vertex 8.050000e+001 8.050000e+001 -7.748604e-007
		endloop
	endfacet
	facet normal 0.000000e+000 0.000000e+000 -1.000000e+000
		outer loop
			vertex 8.050000e+001 8.050000e+001 -7.748604e-007
			vertex 1.195000e+002 1.195000e+002 -7.748604e-007
			vertex 1.195000e+002 8.050000e+001 -7.748604e-007
		endloop
	endfacet
	facet normal 0.000000e+000 1.000000e+000 0.000000e+000
		outer loop
			vertex 1.195000e+002 1.195000e+002 3.900000e+001
			vertex 1.195000e+002 1.195000e+002 -7.748604e-007
			vertex 8.050000e+001 1.195000e+002 3.900000e+001
		endloop
	endfacet
	facet normal 0.000000e+000 1.000000e+000 0.000000e+000
		outer loop
			vertex 8.050000e+001 1.195000e+002 3.900000e+001
			vertex 1.195000e+002 1.195000e+002 -7.748604e-007
			vertex 8.050000e+001 1.195000e+002 -7.748604e-007
		endloop
	endfacet
	facet normal 0.000000e+000 -1.000000e+000 0.000000e+000
		outer loop
			vertex 1.195000e+002 8.050000e+001 -7.748604e-007
			vertex 1.195000e+002 8.050000e+001 3.900000e+001
			vertex 8.050000e+001 8.050000e+001 -7.748604e-007
		endloop
	endfacet
	facet normal 0.000000e+000 -1.000000e+000 0.000000e+000
		outer loop
			vertex 8.050000e+001 8.050000e+001 -7.748604e-007
			vertex 1.195000e+002 8.050000e+001 3.900000e+001
			vertex 8.050000e+001 8.050000e+001 3.900000e+001
		endloop
	endfacet
endsolid STL created by XYZ